<?xml version="1.0" encoding="UTF-8" ?>
<svg version="1.1" width="31" height="32" xmlns="http://www.w3.org/2000/svg" shape-rendering="crispEdges">
<rect x="1" y="0" width="29" height="2" fill="#FFFF00" />
<rect x="0" y="1" width="1" height="24" fill="#FFFF00" />
<rect x="30" y="1" width="1" height="24" fill="#FFFF00" />
<rect x="1" y="2" width="1" height="24" fill="#FFFF00" />
<rect x="2" y="2" width="27" height="2" fill="#000000" />
<rect x="29" y="2" width="1" height="24" fill="#FFFF00" />
<rect x="2" y="4" width="6" height="20" fill="#000000" />
<rect x="8" y="4" width="10" height="1" fill="#FFFF00" />
<rect x="18" y="4" width="1" height="5" fill="#000000" />
<rect x="19" y="4" width="2" height="4" fill="#FFFF00" />
<rect x="21" y="4" width="8" height="1" fill="#000000" />
<rect x="8" y="5" width="3" height="1" fill="#FFFF00" />
<rect x="11" y="5" width="2" height="1" fill="#000000" />
<rect x="13" y="5" width="5" height="1" fill="#FFFF00" />
<rect x="21" y="5" width="1" height="3" fill="#FFFF00" />
<rect x="22" y="5" width="7" height="1" fill="#000000" />
<rect x="8" y="6" width="2" height="4" fill="#FFFF00" />
<rect x="10" y="6" width="1" height="2" fill="#000000" />
<rect x="11" y="6" width="2" height="2" fill="#FFFF00" />
<rect x="13" y="6" width="1" height="2" fill="#000000" />
<rect x="14" y="6" width="4" height="4" fill="#FFFF00" />
<rect x="22" y="6" width="1" height="2" fill="#FFFF00" />
<rect x="23" y="6" width="6" height="18" fill="#000000" />
<rect x="10" y="8" width="1" height="1" fill="#FFFF00" />
<rect x="11" y="8" width="2" height="1" fill="#000000" />
<rect x="13" y="8" width="1" height="1" fill="#FFFF00" />
<rect x="19" y="8" width="4" height="1" fill="#000000" />
<rect x="10" y="9" width="1" height="1" fill="#000000" />
<rect x="11" y="9" width="2" height="5" fill="#FFFF00" />
<rect x="13" y="9" width="1" height="1" fill="#000000" />
<rect x="18" y="9" width="5" height="5" fill="#FFFF00" />
<rect x="8" y="10" width="1" height="12" fill="#FFFF00" />
<rect x="9" y="10" width="1" height="2" fill="#000000" />
<rect x="10" y="10" width="1" height="12" fill="#FFFF00" />
<rect x="13" y="10" width="1" height="4" fill="#FFFF00" />
<rect x="14" y="10" width="1" height="2" fill="#000000" />
<rect x="15" y="10" width="3" height="4" fill="#FFFF00" />
<rect x="9" y="12" width="1" height="2" fill="#FFFF00" />
<rect x="14" y="12" width="1" height="2" fill="#FFFF00" />
<rect x="9" y="14" width="1" height="1" fill="#000000" />
<rect x="11" y="14" width="11" height="1" fill="#000000" />
<rect x="22" y="14" width="1" height="8" fill="#FFFF00" />
<rect x="9" y="15" width="1" height="2" fill="#FFFF00" />
<rect x="11" y="15" width="11" height="2" fill="#FFFF00" />
<rect x="9" y="17" width="1" height="1" fill="#000000" />
<rect x="11" y="17" width="11" height="1" fill="#000000" />
<rect x="9" y="18" width="1" height="2" fill="#FFFF00" />
<rect x="11" y="18" width="11" height="2" fill="#FFFF00" />
<rect x="9" y="20" width="1" height="1" fill="#000000" />
<rect x="11" y="20" width="11" height="1" fill="#000000" />
<rect x="9" y="21" width="1" height="1" fill="#FFFF00" />
<rect x="11" y="21" width="11" height="1" fill="#FFFF00" />
<rect x="8" y="22" width="15" height="2" fill="#000000" />
<rect x="2" y="24" width="27" height="2" fill="#FFFF00" />
<rect x="0" y="27" width="4" height="1" fill="#FFFF00" />
<rect x="5" y="27" width="4" height="1" fill="#FFFF00" />
<rect x="10" y="27" width="4" height="1" fill="#FFFF00" />
<rect x="15" y="27" width="1" height="4" fill="#FFFF00" />
<rect x="18" y="27" width="1" height="4" fill="#FFFF00" />
<rect x="20" y="27" width="2" height="2" fill="#FFFF00" />
<rect x="23" y="27" width="2" height="2" fill="#FFFF00" />
<rect x="26" y="27" width="4" height="1" fill="#FFFF00" />
<rect x="0" y="28" width="1" height="4" fill="#FFFF00" />
<rect x="3" y="28" width="1" height="1" fill="#FFFF00" />
<rect x="5" y="28" width="1" height="4" fill="#FFFF00" />
<rect x="10" y="28" width="1" height="2" fill="#FFFF00" />
<rect x="26" y="28" width="1" height="4" fill="#FFFF00" />
<rect x="1" y="29" width="2" height="1" fill="#FFFF00" />
<rect x="6" y="29" width="3" height="1" fill="#FFFF00" />
<rect x="11" y="29" width="3" height="1" fill="#FFFF00" />
<rect x="20" y="29" width="1" height="3" fill="#FFFF00" />
<rect x="22" y="29" width="1" height="2" fill="#FFFF00" />
<rect x="24" y="29" width="1" height="3" fill="#FFFF00" />
<rect x="27" y="29" width="2" height="1" fill="#FFFF00" />
<rect x="3" y="30" width="1" height="2" fill="#FFFF00" />
<rect x="13" y="30" width="1" height="2" fill="#FFFF00" />
<rect x="6" y="31" width="3" height="1" fill="#FFFF00" />
<rect x="10" y="31" width="3" height="1" fill="#FFFF00" />
<rect x="16" y="31" width="2" height="1" fill="#FFFF00" />
<rect x="27" y="31" width="3" height="1" fill="#FFFF00" />
</svg>